<!DOCTYPE svg PUBLIC "-//W3C//DTD SVG 1.1//EN" "http://www.w3.org/Graphics/SVG/1.1/DTD/svg11.dtd">
<svg xmlns="http://www.w3.org/2000/svg" xmlns:xlink="http://www.w3.org/1999/xlink" >
	<title>SVG Icons Collection</title>

	<symbol id="iconSettings" >
		<path d="M 0.1571991337255554 0.6642151503670487 
				L 0.0932791178264803 0.7637489758228233
				A 0.02499999999999997 0.02499999999999997 0 0  0 0.0940157091455624 0.7918505706340471
				A 0.4999999999999998 0.4999999999999998 0 0  0 0.2081494293659533 0.9059842908544379
				A 0.02499999999999999 0.02499999999999999 0 0  0 0.2362510241771768 0.9067208821735198
				L 0.3357848496329525 0.842800866274444
				A 0.02500000000000003 0.02500000000000003 0 0  1 0.373720829258827 0.8585144635373907
				L 0.398903595500256 0.9740937831703957
				A 0.025000000000000057 0.025000000000000057 0 0  0 0.4192952724701148 0.9934437627068827
				A 0.49999999999999967 0.49999999999999967 0 0  0 0.580704727529888 0.9934437627068822
				A 0.024999999999999974 0.024999999999999974 0 0  0 0.6010964044997469 0.9740937831703952
				L 0.6262791707411755 0.8585144635373902
				A 0.02500000000000009 0.02500000000000009 0 0  1 0.66421515036705 0.8428008662744435
				L 0.7637489758228249 0.9067208821735185
				A 0.02500000000000014 0.02500000000000014 0 0  0 0.7918505706340487 0.9059842908544365
				A 0.4999999999999995 0.4999999999999995 0 0  0 0.9059842908544391 0.7918505706340456
				A 0.02500000000000005 0.02500000000000005 0 0  0 0.906720882173521 0.7637489758228219
				L 0.842800866274446 0.6642151503670473
				A 0.025000000000000033 0.025000000000000033 0 0  1 0.8585144635373925 0.6262791707411727
				L 0.9740937831703963 0.6010964044997442
				A 0.025000000000000046 0.025000000000000046 0 0  0 0.9934437627068833 0.5807047275298852
				A 0.4999999999999998 0.4999999999999998 0 0  0 0.993443762706883 0.4192952724701118
				A 0.024999999999999967 0.024999999999999967 0 0  0 0.9740937831703961 0.3989035955002531
				L 0.8585144635373911 0.3737208292588244
				A 0.024999999999999977 0.024999999999999977 0 0  1 0.8428008662744444 0.33578484963295
				L 0.9067208821735196 0.2362510241771748
				A 0.025000000000000095 0.025000000000000095 0 0  0 0.9059842908544375 0.208149429365951
				A 0.49999999999999967 0.49999999999999967 0 0  0 0.7918505706340464 0.0940157091455605
				A 0.02500000000000012 0.02500000000000012 0 0  0 0.763748975822823 0.0932791178264787
				L 0.6642151503670484 0.1571991337255538
				A 0.02500000000000006 0.02500000000000006 0 0  1 0.6262791707411738 0.1414855364626071
				L 0.6010964044997454 0.0259062168296031
				A 0.02500000000000014 0.02500000000000014 0 0  0 0.5807047275298862 0.0065562372931162
				A 0.4999999999999995 0.4999999999999995 0 0  0 0.4192952724701132 0.0065562372931164
				A 0.02500000000000007 0.02500000000000007 0 0  0 0.3989035955002542 0.0259062168296033
				L 0.3737208292588256 0.1414855364626079
				A 0.02500000000000004 0.02500000000000004 0 0  1 0.335784849632951 0.1571991337255545
				L 0.2362510241771766 0.0932791178264794
				A 0.025000000000000033 0.025000000000000033 0 0  0 0.2081494293659529 0.0940157091455613
				A 0.4999999999999998 0.4999999999999998 0 0  0 0.0940157091455621 0.2081494293659522
				A 0.025000000000000015 0.025000000000000015 0 0  0 0.0932791178264801 0.2362510241771758
				L 0.1571991337255555 0.3357848496329514
				A 0.024999999999999918 0.024999999999999918 0 0  1 0.1414855364626088 0.3737208292588257
				L 0.0259062168296038 0.3989035955002545
				A 0.02500000000000009 0.02500000000000009 0 0  0 0.0065562372931169 0.4192952724701136
				A 0.5000000000000003 0.5000000000000003 0 0  0 0.0065562372931172 0.5807047275298867
				A 0.02500000000000007 0.02500000000000007 0 0  0 0.0259062168296042 0.6010964044997456
				L 0.1414855364626087 0.6262791707411742
				A 0.02500000000000001 0.02500000000000001 0 0  1 0.1571991337255554 0.6642151503670487  

				M 0.5 0.5
				m -0.2, 0
				a 0.2,0.2 0 0 1 0.4,0
				a 0.2,0.2 0 0 1 -0.4,0

				Z"/>

	</symbol>
	
	<symbol id="iconMin">
		<path d="M 0 0.6
					h 1 v 0.2 h -1
					z" />
	</symbol>

	<symbol id="iconMax">
		<path d="M 0 0
					h 1 v 1 h -1
					M 0.1 0.3
					v .6 h .8 v -.6
					z" />
	</symbol>
	
	<symbol id="iconClose">
		<path d="M 0.6509 0.5
				L 0.99 0.839
				L 0.8391 0.99
				L 0.5 0.6509
				L 0.1609 0.99
				L 0.01 0.839
				L 0.3491 0.5
				L 0.01 0.1609
				L 0.1609 0.01
				L 0.5 0.3491
				L 0.8391 0.01
				L 0.99 0.1609
				L 0.6509 0.5
				z" />
	</symbol>
</svg>
