<!DOCTYPE svg PUBLIC "-//W3C//DTD SVG 1.1//EN" "http://www.w3.org/Graphics/SVG/1.1/DTD/svg11.dtd">
<svg xmlns="http://www.w3.org/2000/svg" xmlns:xlink="http://www.w3.org/1999/xlink" version="1.1"
	 width="100%" height="100%" viewBox="265 170 280 280"
	  >
	<title>Settings Icon</title>
	<style>
	path {
		stroke-width: 0;
	}
	</style>
	
	<g>
	<path d="M 308.46 264.03 L 
			290.54 236.14
			289.82 234.64
			289.46 233.01
			289.51 231.34
			289.94 229.73
			290.75 228.27
			294.66 223.09
			298.8 218.09
			303.18 213.3
			307.76 208.71
			312.56 204.34
			317.55 200.19
			322.73 196.28
			324.2 195.48
			325.81 195.04
			327.48 195
			329.11 195.35
			330.61 196.08
			358.5 213.99
			359.84 214.66
			361.29 215.03
			362.79 215.08
			364.26 214.82
			365.64 214.24
			366.87 213.39
			367.89 212.29
			368.66 211.01
			369.13 209.59
			376.19 177.2
			376.74 175.62
			377.64 174.22
			378.85 173.07
			380.3 172.24
			381.9 171.77
			388.33 170.88
			394.79 170.28
			401.27 169.98
			407.76 169.98
			414.25 170.28
			420.71 170.88
			427.14 171.77
			428.74 172.24
			430.19 173.07
			431.4 174.22
			432.3 175.62
			432.85 177.2
			439.91 209.59
			440.38 211.01
			441.14 212.29
			442.16 213.39
			443.39 214.24
			444.78 214.82
			446.25 215.08
			447.75 215.03
			449.2 214.66
			450.54 213.99
			478.43 196.08
			479.93 195.35
			481.56 195
			483.23 195.04
			484.84 195.48
			486.3 196.28
			491.48 200.19
			496.48 204.34
			501.27 208.71
			505.86 213.3
			510.23 218.09
			514.38 223.09
			518.29 228.27
			519.09 229.73
			519.53 231.34
			519.57 233.01
			519.22 234.64
			518.49 236.14
			500.58 264.03
			499.91 265.37
			499.54 266.82
			499.49 268.32
			499.76 269.79
			500.33 271.18
			501.18 272.41
			502.28 273.43
			503.57 274.19
			504.99 274.67
			537.37 281.72
			538.95 282.27
			540.35 283.17
			541.5 284.38
			542.33 285.83
			542.8 287.44
			543.7 293.86
			544.3 300.33
			544.6 306.81
			544.6 313.3
			544.3 319.78
			543.7 326.24
			542.8 332.67
			542.33 334.27
			541.5 335.72
			540.35 336.93
			538.95 337.84
			537.37 338.38
			504.99 345.44
			503.57 345.91
			502.28 346.68
			501.18 347.7
			500.33 348.93
			499.76 350.31
			499.49 351.78
			499.54 353.28
			499.91 354.73
			500.58 356.07
			518.49 383.96
			519.22 385.46
			519.57 387.1
			519.53 388.76
			519.09 390.38
			518.29 391.84
			514.38 397.02
			510.23 402.01
			505.86 406.81
			501.27 411.4
			496.48 415.77
			491.48 419.91
			486.3 423.82
			484.84 424.63
			483.23 425.06
			481.56 425.11
			479.93 424.76
			478.43 424.03
			450.54 406.12
			449.2 405.45
			447.75 405.08
			446.25 405.02
			444.78 405.29
			443.39 405.86
			442.16 406.71
			441.14 407.81
			440.38 409.1
			439.91 410.52
			432.85 442.91
			432.3 444.48
			431.4 445.89
			430.19 447.04
			428.74 447.87
			427.14 448.33
			420.71 449.23
			414.25 449.83
			407.76 450.13
			401.27 450.13
			394.79 449.83
			388.33 449.23
			381.9 448.33
			380.3 447.87
			378.85 447.04
			377.64 445.89
			376.74 444.48
			376.19 442.91
			369.13 410.52
			368.66 409.1
			367.89 407.81
			366.87 406.71
			365.64 405.86
			364.26 405.29
			362.79 405.02
			361.29 405.08
			359.84 405.45
			358.5 406.12
			330.61 424.03
			329.11 424.76
			327.48 425.11
			325.81 425.06
			324.2 424.63
			322.73 423.82
			317.55 419.91
			312.56 415.77
			307.76 411.4
			303.18 406.81
			298.8 402.01
			294.66 397.02
			290.75 391.84
			289.94 390.38
			289.51 388.76
			289.46 387.1
			289.82 385.46
			290.54 383.96
			308.46 356.07
			309.13 354.73
			309.5 353.28
			309.55 351.78
			309.28 350.31
			308.71 348.93
			307.86 347.7
			306.76 346.68
			305.47 345.91
			304.05 345.44
			271.66 338.38
			270.09 337.84
			268.68 336.93
			267.54 335.72
			266.71 334.27
			266.24 332.67
			265.34 326.24
			264.74 319.78
			264.44 313.3
			264.44 306.81
			264.74 300.33
			265.34 293.86
			266.24 287.44
			266.71 285.83
			267.54 284.38
			268.68 283.17
			270.09 282.27
			271.66 281.72
			304.05 274.67
			305.47 274.19
			306.76 273.43
			307.86 272.41
			308.71 271.18
			309.28 269.79
			309.55 268.32
			309.5 266.82
			309.13 265.37
			308.46 264.03  
			
			M 405, 310
        	m -60, 0
        	a 60,60 0 1,0 120,0
        	a 60,60 0 1,0 -120,0
			
			Z"/>

	</g>
</svg>
